# xmcd
#
# Track frame offsets: 
#        150
#        17038
#        32748
#        51552
#        66231
#        79540
#        96652
#        118348
#        140807
#        166042
#        188356
#
# Disc length: 2728 seconds
#
# Revision: 0
# Processed by: cddbd v1.5.2PL0 Copyright (c) Steve Scherf et al.
# Submitted via: ExactAudioCopy v0.95a5
#
DISCID=980aa60b
DTITLE=Maciej Lipina - Scigany
DYEAR=2018
DGENRE=Blues
TTITLE0=Schowaj rady
TTITLE1=Nikomu nie mowimy nic
TTITLE2=Caly swiat
TTITLE3=Tak tu jest
TTITLE4=Wszedzie dobrze
TTITLE5=Na chleb
TTITLE6=Koniec dolow
TTITLE7=Podnies sie i walcz
TTITLE8=Wzgorze
TTITLE9=Milion twarzy
TTITLE10=Wyslalem dobro
EXTD=
EXTT0=
EXTT1=
EXTT2=
EXTT3=
EXTT4=
EXTT5=
EXTT6=
EXTT7=
EXTT8=
EXTT9=
EXTT10=
PLAYORDER=
